<svg xmlns="http://www.w3.org/2000/svg" viewBox="0 0 93.7 18"><defs><style>.a{fill:#fff;}.b{fill:#0071bc;}.c{fill:#c1272d;}</style></defs><title>copyright</title><path class="a" d="M84.9,26.8q1.3,0,1.5,1.7v.2l.3,1.1h-.2a2.9,2.9,0,0,1,.3.8h-.1a3.4,3.4,0,0,0,3.6,3v.4l.3.8q0,.2-.6.4H89q0,.3-.9.6h-.8q0,.4-1.7.7h-.3l-1.7.4h-.4q-.3,0-.3-.2h-.5l-.4-.3h0l4.4-1.8.5-.4q-2.4-.9-2.4-1.8h.1q-.4,0-.4-.2l.4-.3v-.3q.3,0,.3-.2t-.6-.6H84v-.2h.3v-.4a16.4,16.4,0,0,1-.4-2.9A2.1,2.1,0,0,1,84.9,26.8Z" transform="translate(-82.1 -26.8)"/><path class="a" d="M97.5,31q2.2.7,2.2,2.2T98.2,36h-.1l.3.4a.3.3,0,0,1-.3.3v-.4q-.4,0-.4.6v.3a1.1,1.1,0,0,0-.1.4H97a22.9,22.9,0,0,1-2.8,4h.1q-1.2,1.6-1.8,1.6v.3l-.6,1h-1a1.7,1.7,0,0,1-.4-1q0-.7,1.2-1.8a57.4,57.4,0,0,0,4.7-7.1h.1v-.4a.3.3,0,0,0-.3-.3,5.5,5.5,0,0,1-2.5,1.2h-.4a4.8,4.8,0,0,1-2.4-2.2q.2-1.5.9-1.5t1.5,1.2Q96.7,31,97.5,31ZM92.2,43.2a1,1,0,0,1-.3.6H92q.2,0,.4-.6Zm1.5-1.8h.4v-.3h-.1Q93.6,41.2,93.6,41.5Z" transform="translate(-82.1 -26.8)"/><path class="b" d="M113.2,26.8q2.1.2,2.1.6h0v.3q.9.1.9.5v.2q-.4,2.1-1.2,2.1h.1a6,6,0,0,1-1.7,1.3q0,.4-2.7,1.7l-.4-.3q-1.6,0-1.6,1.7-.1,0-.2.4V36q-.3.8-.6.9v.3q-.2.6-.5.6V38a13.1,13.1,0,0,1-1.2,2.7h-.5a.2.2,0,0,1-.2.2q-2-.3-2-.6a4,4,0,0,1,1.1-2.5h0l-.2-.4.4-.6h-.1l.6-1h.1q0-.2.5-.5a18.6,18.6,0,0,1,.9-2.8.9.9,0,0,1-.1-.5l.5-2,.5-.4h1.1q2.2-2.6,4.4-2.6Zm-.6,2a23.9,23.9,0,0,0-2.6,2.6v-.2q-.2,0-.2.2h.2v.4h-.3v-.4q-.2,0-.2.2v.4h.1a9.2,9.2,0,0,0,3.3-3.2Z" transform="translate(-82.1 -26.8)"/><path class="b" d="M118.5,30.6h.6l.4.3h.4a1.2,1.2,0,0,1,.1.6h.4v.5q-2.4,0-3.9,4.9l-.5.4a2.7,2.7,0,0,1-2-1.4,4.6,4.6,0,0,0,.5-1.8v-.6a2.2,2.2,0,0,1,.3-.8l.9.4h.1q1.5-2.1,2.3-2.1Z" transform="translate(-82.1 -26.8)"/><path class="b" d="M125,30.7q1.4,0,1.8,3.1a.4.4,0,0,1-.4.4h.3q0,.3-.5.3V35l-.8.3v.3h0a4,4,0,0,1-2.6,1.1h-.1q-1.1,0-3.1-2.4v-.7a5.7,5.7,0,0,1,4.7-2.8h.4Z" transform="translate(-82.1 -26.8)"/><path class="b" d="M131.4,31.6a1.5,1.5,0,0,1,1.5.7q-.1.4-1.6,1.1a5.7,5.7,0,0,0-1.1,1.5v.2l1.9-.4a1.6,1.6,0,0,1,1.8,1.5v.4q-.4.7-.7.7v.2a1.8,1.8,0,0,1-1.2,1h.2v.2q-.5,0-1.2,1t-1,.8v.2h0a4.6,4.6,0,0,0-1.6,1.2h-.2q0,.4-.8.4t.2.2h.4v.2h-1.1v.5h-1q0-.3-1.2-.6v-.2l3.2-2.7a20.8,20.8,0,0,1,2.3-2.5v-.5h-.4q-2.9-.9-2.9-1.8v-.4a4.4,4.4,0,0,1,2.5-2.4A2.8,2.8,0,0,1,131.4,31.6Z" transform="translate(-82.1 -26.8)"/><path class="c" d="M141.1,26.8h.4q1.2.9,1.2,1.2t.3.6q-.6,4.4-1.4,4.6a1.6,1.6,0,0,1,.1.8h.5a21.8,21.8,0,0,0,4.6-3.8h.1l.6.2.5-.2q0,.2.9.9a.1.1,0,0,1,.2-.2,4.4,4.4,0,0,1,.5,2.6l-.9,1.2h.6l-.8,1.1v.2l.3.4h-.5v.3a1.2,1.2,0,0,1,.1.6q-.2,0-.5.5h.6v.5h-.3l-.3-.2v.6q1.4,0,1.7.9a3.6,3.6,0,0,0-1.7.4q-2.3-1.5-2.3-2.4t.6-1.7.3.3a.1.1,0,0,0-.2.2h.3a8,8,0,0,1,.1-1.2v-.2h-.1q0,.5-.3.5a2.7,2.7,0,0,1-.4-1.1l.9.5.2-.3v-.5l-.3.2q-.3,0-.3-.5h-.1q-1.8,1.5-2.3,1.5v.4h.4v.3l-2,1.2a5.4,5.4,0,0,1-2.7-2.3l-.6-.2q-1.1.9-1.1,1.4t-.3.5V37a15.1,15.1,0,0,1-1.8,3.8,5.5,5.5,0,0,1-2.1-1.8v-.4q1.4-.9,1.4-5.6v-.4l-.2-.9.2-.3-.2-.9v-.6q0-.2.5-.5t1.5,2.3v1.7q0,.3.3.3a12.9,12.9,0,0,1,1.4-2.6q1.1-2.8,1.7-2.9l-.2-.3Q140.9,26.8,141.1,26.8Zm-3.5,8.8v.2q.2,0,.4-.5v-.2Q137.9,35.2,137.7,35.6Zm.8-1.2q.7-.4.8-.6v-.3a2.6,2.6,0,0,0,.4-1.2Q139.2,32.3,138.4,34.4Zm.6.1v.3a.3.3,0,0,0,.3-.3v-.3Q139,34.3,139,34.6Zm.1-3v.2h.2a.3.3,0,0,0,.3-.3v-.2h-.2Q139.2,31.3,139.2,31.5Zm.6-.6a4.3,4.3,0,0,1-.2,1.1,1,1,0,0,0,.6-1.1Zm.1-.5h.3a.3.3,0,0,0,.3-.3h-.1Q140.2,30,139.9,30.5Zm4.1,2.7v.2h.3l.2-.3Zm1.2,1.8h.2q.3,0,.3.3l-.6.3h0A1.2,1.2,0,0,0,145.2,35Z" transform="translate(-82.1 -26.8)"/><path class="c" d="M152.5,32.6q1.3.3,1.3,1.3-.7,3-1,3h-.7a6.8,6.8,0,0,0-1.8-1q.7-3.3,2.1-3.3Zm1.2-5.1q1.5.5,1.5.7v.6q0,.4-1.6.6h-.1q0-.3-1-.7v-.6A1.4,1.4,0,0,1,153.7,27.5Z" transform="translate(-82.1 -26.8)"/><path class="c" d="M160,31q2.3.5,2.3,2.3v.4l-.3.6a1,1,0,0,1,.1.5l-.3.4a1,1,0,0,1,.1.5l-.6.5h-.1q-.7-.8-1.1-.8a2.4,2.4,0,0,1-.8-1.4h-.1a9.7,9.7,0,0,0-2.8,2.8h-.4a2.4,2.4,0,0,1-2-1.4,20.1,20.1,0,0,1,3.8-3.6A2.1,2.1,0,0,1,160,31Z" transform="translate(-82.1 -26.8)"/><path class="c" d="M167,29q1.5.4,1.7,1.1v.3q.3,0,.3.3-2,3.5-3.1,3.5v.8l.4.3h.3l.4.3,1.9-.4h.4q.3,0,.3.3h0q-1,1.2-1.3,1.2l-1.1.4h-.3a5.2,5.2,0,0,1-2.4-.9,2.8,2.8,0,0,1-1.9-2.5V33h-.1q0-2.4,3.3-3.7Z" transform="translate(-82.1 -26.8)"/><path class="c" d="M173.9,30.6h.6l.4.3h.4a1.2,1.2,0,0,1,.1.6h.4v.5q-2.4,0-3.9,4.9l-.5.4a2.7,2.7,0,0,1-2-1.4,4.6,4.6,0,0,0,.5-1.8v-.6a2.2,2.2,0,0,1,.3-.8l.9.4h.1q1.5-2.1,2.3-2.1Z" transform="translate(-82.1 -26.8)"/></svg>