<svg xmlns="http://www.w3.org/2000/svg" viewBox="0 0 363.4 363.4"><defs><style>.a{fill:#fff;}</style></defs><title>TicTacToeGround</title><path class="a" d="M61.8,167.5c30-1.3,60.1-1.7,90.1-1.6h22.5l22.5.2,45,.9,45,1.5,22.5.9,11.2.5,11.2.6c30,1.5,59.9,3.4,89.9,6.3v.6l-179.9-4.4-179.9-5Z" transform="translate(-58.3 -58.3)"/><path class="a" d="M58.3,302.5c30-1.3,60.1-1.7,90.1-1.6h22.5l22.5.2,45,.9,45,1.5,22.5.9,11.2.5,11.2.6c30,1.5,59.9,3.4,89.9,6.3v.6l-179.9-4.4-179.9-5Z" transform="translate(-58.3 -58.3)"/><path class="a" d="M167.5,418.2c-1.3-30-1.7-60.1-1.6-90.1V305.6l.2-22.5.9-45c.5-15,.9-30,1.5-45l.9-22.5.5-11.2.6-11.2c1.5-30,3.4-59.9,6.3-89.9h.6l-4.4,179.9-5,179.9Z" transform="translate(-58.3 -58.3)"/><path class="a" d="M302.5,421.7c-1.3-30-1.7-60.1-1.6-90.1V309.1l.2-22.5.9-45c.5-15,.9-30,1.5-45l.9-22.5.5-11.2.6-11.2c1.5-30,3.4-59.9,6.3-89.9h.6l-4.4,179.9-5,179.9Z" transform="translate(-58.3 -58.3)"/></svg>