<svg xmlns="http://www.w3.org/2000/svg" viewBox="0 0 407.7 155.3"><defs><style>.a{fill:#ed1c24;}.b{fill:#fff;}</style></defs><title>TicTacToe</title><path class="a" d="M89.2,76.2l-4.9,6.9a34,34,0,0,1-8.5-9.7c-5.2-9.1-3-14.1-8-19.3q-4.2-4.5-13.4-4.5H50.2a125.4,125.4,0,0,1-1.1,16A125.4,125.4,0,0,1,45.9,82l-8.1-1.6a74,74,0,0,0,4.7-18.2,84.6,84.6,0,0,0,.2-16.7,159.4,159.4,0,0,0-6.4-35l8.1-3.2c1.2,5,2.3,10.4,3.2,16.2a192.5,192.5,0,0,1,2,19.6,26.8,26.8,0,0,0,9.3-.1,17.1,17.1,0,0,0,4.4-1.4,18,18,0,0,0,4.4-3.2c4-4.1,5.5-12.6,7.6-18A34.9,34.9,0,0,1,85.5,6.4l5,5.4a34.6,34.6,0,0,0-7.7,10.1C79.8,28,80.2,32,76.3,37.7a22.4,22.4,0,0,1-8.8,7.7V46a18.5,18.5,0,0,1,9.1,6.4c4.7,6.5,3.3,12.6,8.3,19.4A22.2,22.2,0,0,0,89.2,76.2Z" transform="translate(-36.1 -6.4)"/><path class="b" d="M138.7,53.5A28.3,28.3,0,0,1,133,71.1q-5.7,7.6-16,7.6-8.6,0-11.3-3.1h-.5q0,12.9.3,23.1H96.8q1.1-12.4,1.1-30.6,0-22.4-2.3-34.7l8.2-1.2.7,4.6h.5q4.5-5.3,14.6-5.3t14,6.5A24,24,0,0,1,138.7,53.5Zm-8.3,1.1a19.3,19.3,0,0,0-3.6-11.8,11.9,11.9,0,0,0-10.2-4.9q-8.4,0-12,5.1.7,15.6.7,26.8a14.7,14.7,0,0,0,9.8,3.2q7.7,0,11.5-5.4A22,22,0,0,0,130.5,54.6Z" transform="translate(-36.1 -6.4)"/><path class="b" d="M187.6,50.1q0,2-.2,5.4l-32,.6a16.8,16.8,0,0,0,5.3,11.4q4.8,4.6,12.7,4.6a49.3,49.3,0,0,0,13.3-1.7l-.8,6.6q-4.6,1.8-13.2,1.8-12.1,0-18.4-6.6a22.4,22.4,0,0,1-6.3-16.1,27.3,27.3,0,0,1,5.8-17.5,18.8,18.8,0,0,1,15.6-7.3q9,0,13.7,5.3T187.6,50.1Zm-7.8.1q0-13.1-10.9-13.1T155.8,50.7Z" transform="translate(-36.1 -6.4)"/><path class="b" d="M232.2,70.3l-.5,6.2q-3.8,2.1-10.1,2.1-12,0-18.4-6.7a22.4,22.4,0,0,1-6.4-16,24.2,24.2,0,0,1,6.7-17.1q6.7-7.2,17.7-7.2a30.2,30.2,0,0,1,9,1.1L229,40.1a28.2,28.2,0,0,0-9.9-1.8,13.1,13.1,0,0,0-10.5,4.6,17.2,17.2,0,0,0-3.9,11.5A17.8,17.8,0,0,0,209.3,67q4.7,5,13.2,5A38.8,38.8,0,0,0,232.2,70.3Z" transform="translate(-36.1 -6.4)"/><path class="b" d="M275.2,33.2l-.3,6.9q-7.6-.7-14.9-.7-.2,6.5-.2,16.7t.7,21.3H252q.7-9.3.7-21.3,0-10-.4-16.7-7.3,0-15,.7l.3-6.9Z" transform="translate(-36.1 -6.4)"/><path class="b" d="M321.4,77.4h-8.3q.7-8,.7-21.3,0-3.8.5-11.3h-.5q-1,3.2-12.7,16.9T290,77.4h-6.6q.7-9.3.7-21.3a131.2,131.2,0,0,0-1.6-22.6l9.2-1.3q-.6,8.6-.6,21.9,0,4.7-.3,11.9h.5q1.1-2.9,12.7-16.8t10.9-15.7l6.6-1.3q-.6,9.7-.6,23.8Q320.7,67.3,321.4,77.4Z" transform="translate(-36.1 -6.4)"/><path class="b" d="M371.1,77.4h-8.4a25.5,25.5,0,0,1-1.1-2.4q-3-9.7-6.4-13.5a11.4,11.4,0,0,0-8.9-3.8h-4.9q0,10.7.7,19.6h-8.3q.7-9.3.7-21.3a127.7,127.7,0,0,0-1.7-22.6l9.2-1.3q-.6,8.9-.6,19.8h4.9q10.3,0,14.5-16.8a6.7,6.7,0,0,1,1-2.1h7.7l-1.6,4Q362.6,51.7,356,54.2v.5a13.7,13.7,0,0,1,7.4,5.4,48.6,48.6,0,0,1,5.7,12.1A54.3,54.3,0,0,0,371.1,77.4Z" transform="translate(-36.1 -6.4)"/><path class="b" d="M418.2,77.4h-8.3q.7-8,.7-21.3,0-3.8.5-11.3h-.5q-1,3.2-12.7,16.9T386.8,77.4h-6.6q.7-9.3.7-21.3a131.2,131.2,0,0,0-1.6-22.6l9.2-1.3q-.6,8.6-.6,21.9,0,4.7-.3,11.9h.5q1.1-2.9,12.7-16.8t10.9-15.7l6.6-1.3q-.6,9.7-.6,23.8Q417.6,67.3,418.2,77.4Z" transform="translate(-36.1 -6.4)"/><path class="a" d="M196.9,160l-9.7,1.6c-.7-5.1-1.2-10.6-1.6-16.2s-.6-10.2-.7-14.9H157q-.3,5.8-.7,11.7-.7,10-1.6,19.5L145,160a151.3,151.3,0,0,0,4.3-32.5A151.3,151.3,0,0,0,146.6,95h8.1c.7,5.1,1.2,10.6,1.6,16.2s.5,9.1.6,13.3h28c.1-4.3.3-8.7.6-13.3s1-11.1,1.6-16.2h8.1a150.1,150.1,0,0,0,1.6,65Z" transform="translate(-36.1 -6.4)"/><path class="b" d="M250.6,135.9q0,11.9-6.8,18.6a22.3,22.3,0,0,1-16.1,6.7,20.8,20.8,0,0,1-14.9-5.9q-6.2-5.9-6.2-16.7t6.9-18.7a22.3,22.3,0,0,1,16.1-6.7,20.6,20.6,0,0,1,14.8,6Q250.6,125,250.6,135.9Zm-8,1.6a23.3,23.3,0,0,0-3.7-12.9,12.5,12.5,0,0,0-20.7-.3,21.7,21.7,0,0,0-3.6,12.4,23.2,23.2,0,0,0,3.7,12.9,12.5,12.5,0,0,0,20.7.3A21.8,21.8,0,0,0,242.6,137.5Z" transform="translate(-36.1 -6.4)"/><path class="b" d="M296.6,159.3h-8.1q.6-8.4.7-20.3,0-9.4-.4-18h-9.3q-1.3,5.2-3,10.2t-3.6,9.3a81.2,81.2,0,0,1-4,8,46.3,46.3,0,0,1-4.2,6.2,19.9,19.9,0,0,1-4.3,4,7.8,7.8,0,0,1-4.3,1.4l-.5-7.4a5,5,0,0,0,2.7-1.5,23.1,23.1,0,0,0,3.3-4,60.2,60.2,0,0,0,3.6-6q1.8-3.5,3.6-7.6t3.4-8.8q1.6-4.7,2.8-9.6h15.3l6.3-.9q-.6,9.7-.6,23.8Q296,149.2,296.6,159.3Z" transform="translate(-36.1 -6.4)"/><path class="b" d="M347,159.3h-8.3q.7-8,.7-21.3,0-3.8.5-11.3h-.5q-1,3.2-12.7,16.9t-11.1,15.7H309q.6-9.3.7-21.3a131.4,131.4,0,0,0-1.6-22.6l9.2-1.3q-.6,8.6-.6,21.9,0,4.7-.3,11.9h.5q1.1-2.9,12.7-16.8t10.9-15.7l6.6-1.3q-.6,9.7-.6,23.8Q346.3,149.2,347,159.3Z" transform="translate(-36.1 -6.4)"/><path class="b" d="M396.7,159.3h-8.4a25.3,25.3,0,0,1-1.1-2.4q-3-9.7-6.4-13.5a11.4,11.4,0,0,0-8.9-3.8H367q0,10.7.7,19.6h-8.3q.7-9.3.7-21.3a127.6,127.6,0,0,0-1.7-22.6l9.2-1.3q-.6,8.9-.6,19.8h4.9q10.3,0,14.5-16.8a6.8,6.8,0,0,1,1-2.1h7.7l-1.6,4q-5.3,14.6-11.9,17.1v.5a13.7,13.7,0,0,1,7.4,5.4,48.7,48.7,0,0,1,5.7,12.1A54.7,54.7,0,0,0,396.7,159.3Z" transform="translate(-36.1 -6.4)"/><path class="b" d="M443.8,159.3h-8.3q.7-8,.7-21.3,0-3.8.5-11.3h-.5q-1,3.2-12.7,16.9t-11.1,15.7h-6.6q.6-9.3.7-21.3a131.4,131.4,0,0,0-1.6-22.6l9.2-1.3q-.6,8.6-.6,21.9,0,4.7-.3,11.9h.5q1.1-2.9,12.7-16.8t10.9-15.7l6.6-1.3q-.6,9.7-.6,23.8Q443.2,149.2,443.8,159.3Z" transform="translate(-36.1 -6.4)"/></svg>