<svg xmlns="http://www.w3.org/2000/svg" viewBox="0 0 50 60.3"><defs><style>.a{fill:#fff;}</style></defs><title>o</title><path class="a" d="M151.6,80.5a25.9,25.9,0,0,0-6-9.1,20.8,20.8,0,0,0-9.7-5.3l-2.8-.4h-2.8a20.8,20.8,0,0,0-5.4,1.1,24,24,0,0,0-6.5,3.6l-2.6,1.9a34.5,34.5,0,0,0-10.9,17.7,35.1,35.1,0,0,0,.9,21,25.9,25.9,0,0,0,6,9.1,20.8,20.8,0,0,0,9.7,5.3l2.8.4h2.8a20.8,20.8,0,0,0,5.4-1.1,24,24,0,0,0,6.5-3.6l2.6-1.9a34.5,34.5,0,0,0,10.9-17.7A35.1,35.1,0,0,0,151.6,80.5Zm-29.1,41.1c-5.9-1.5-10.5-6.3-12.9-12.1A30.9,30.9,0,0,1,108,90.7a31.6,31.6,0,0,1,9.5-16.5l2.3-1.8A20.2,20.2,0,0,1,135,69.9c5.9,1.5,10.5,6.3,12.9,12.1a30.9,30.9,0,0,1,1.5,18.8,31.6,31.6,0,0,1-9.5,16.5l-2.3,1.8A20.2,20.2,0,0,1,122.4,121.5Z" transform="translate(-103.7 -65.6)"/></svg>