<svg xmlns="http://www.w3.org/2000/svg" viewBox="0 0 59.4 64"><defs><style>.a{fill:#fff;}</style></defs><title>x</title><path class="a" d="M22.1,81.5A106.7,106.7,0,0,1,34.1,65a177.4,177.4,0,0,1,14-14.3A180.6,180.6,0,0,1,63.6,38,108.1,108.1,0,0,1,81,27.5l.4.4-7.3,6.9-7.3,6.8L52.2,55.1,37.4,68.6l-7.4,6.7L22.5,82Z" transform="translate(-22.1 -20.3)"/><path class="a" d="M73.7,84.3A106.7,106.7,0,0,1,58.3,70.8a177.4,177.4,0,0,1-13-15.3A180.6,180.6,0,0,1,34.1,39a108.1,108.1,0,0,1-8.9-18.3l.5-.4,6.2,7.9,6.1,7.9L50.1,51.9l12,16,6,8,5.9,8Z" transform="translate(-22.1 -20.3)"/></svg>